<?xml version="1.0" encoding="UTF-8" standalone="no"?>
<svg
   height="44.9px"
   width="37.75px"
   version="1.1"
   id="svg804"
   sodipodi:docname="flash.svg"
   inkscape:version="1.2.1 (9c6d41e410, 2022-07-14)"
   xmlns:inkscape="http://www.inkscape.org/namespaces/inkscape"
   xmlns:sodipodi="http://sodipodi.sourceforge.net/DTD/sodipodi-0.dtd"
   xmlns="http://www.w3.org/2000/svg"
   xmlns:svg="http://www.w3.org/2000/svg">
  <defs
     id="defs808" />
  <sodipodi:namedview
     id="namedview806"
     pagecolor="#ffffff"
     bordercolor="#666666"
     borderopacity="1.0"
     inkscape:showpageshadow="2"
     inkscape:pageopacity="0.0"
     inkscape:pagecheckerboard="0"
     inkscape:deskcolor="#d1d1d1"
     showgrid="false"
     inkscape:zoom="5.2561245"
     inkscape:cx="18.930297"
     inkscape:cy="22.450001"
     inkscape:window-width="1920"
     inkscape:window-height="1017"
     inkscape:window-x="1672"
     inkscape:window-y="-8"
     inkscape:window-maximized="1"
     inkscape:current-layer="svg804" />
  <g
     transform="matrix(1.0, 0.0, 0.0, 1.0, 5.45, 9.15)"
     id="g802">
    <path
       d="M22.35 5.05 L32.05 5.75 24.9 11.7 32.3 17.6 22.7 18.4 24.95 28.6 20.95 25.55 20.95 11.45 16.3 4.0 10.8 4.0 9.8 4.15 Q9.35 4.35 9.35 5.0 9.35 6.0 10.55 6.15 L10.55 8.15 9.05 9.45 8.35 9.45 Q7.65 9.45 7.65 10.15 L7.65 13.35 8.8 14.45 8.8 16.8 9.35 16.8 9.35 19.2 8.8 19.2 8.8 20.15 8.45 20.15 8.45 21.65 0.4 26.0 4.35 16.0 -5.45 12.25 4.55 8.65 -2.2 0.25 8.6 2.05 10.15 -9.15 16.25 0.6 25.55 -5.9 22.35 5.05 M19.95 12.15 L19.95 24.8 17.3 22.8 17.3 20.15 16.75 20.15 16.75 19.2 16.25 19.2 16.25 16.8 16.75 16.8 16.75 14.45 17.95 13.35 17.95 11.0 19.95 12.15"
       fill="#ffffff"
       fill-opacity="0.3019608"
       fill-rule="evenodd"
       stroke="none"
       id="path798" />
    <path
       d="M10.55 8.15 L10.55 6.15 Q9.35 6.0 9.35 5.0 9.35 4.35 9.8 4.15 L10.8 4.0 16.3 4.0 20.95 11.45 20.95 27.2 18.6 28.35 17.85 28.2 Q17.6 27.75 18.05 27.35 18.45 27.0 19.25 26.55 L19.95 26.2 19.95 12.15 17.95 11.0 17.95 13.35 16.75 14.45 16.75 16.8 16.25 16.8 16.25 19.2 16.75 19.2 16.75 21.7 16.25 21.7 16.25 24.1 16.75 24.1 16.75 26.6 16.25 26.6 16.25 29.0 16.75 29.0 16.75 31.3 17.95 33.35 17.95 35.05 Q17.95 35.75 17.25 35.75 L8.35 35.75 Q7.65 35.75 7.65 35.05 L7.65 33.35 8.8 31.3 8.8 29.0 9.35 29.0 9.35 26.6 8.8 26.6 8.8 24.1 9.35 24.1 9.35 21.7 8.8 21.7 8.8 19.2 9.35 19.2 9.35 16.8 8.8 16.8 8.8 14.45 7.65 13.35 7.65 10.15 Q7.65 9.45 8.35 9.45 L9.05 9.45 10.55 8.15"
       fill="#beeeef"
       fill-rule="evenodd"
       stroke="none"
       id="path800"
       style="fill:#fffb05;fill-opacity:1" />
  </g>
</svg>
